<?xml version="1.0" encoding="UTF-8"?>
<svg xmlns="http://www.w3.org/2000/svg" width="1220" height="660" viewBox="0 0 1220 660">

<defs>
  <linearGradient id="bggrad" x1="0" x2="1" y1="0" y2="1">
    <stop offset="0%" stop-color="#fbfdff"/>
    <stop offset="100%" stop-color="#f4f8fb"/>
  </linearGradient>
  <linearGradient id="bluegrad" x1="0" x2="1" y1="0" y2="1">
    <stop offset="0%" stop-color="#9cc6df"/>
    <stop offset="100%" stop-color="#4f87b0"/>
  </linearGradient>
  <linearGradient id="navygrad" x1="0" x2="1" y1="0" y2="1">
    <stop offset="0%" stop-color="#376789"/>
    <stop offset="100%" stop-color="#1f425f"/>
  </linearGradient>
  <linearGradient id="ambergrad" x1="0" x2="1" y1="0" y2="1">
    <stop offset="0%" stop-color="#efcb84"/>
    <stop offset="100%" stop-color="#bf8b35"/>
  </linearGradient>
  <linearGradient id="sagegrad" x1="0" x2="1" y1="0" y2="1">
    <stop offset="0%" stop-color="#b7ccb2"/>
    <stop offset="100%" stop-color="#6f8969"/>
  </linearGradient>
  <linearGradient id="stonegrad" x1="0" x2="1" y1="0" y2="1">
    <stop offset="0%" stop-color="#d7c7af"/>
    <stop offset="100%" stop-color="#8f7758"/>
  </linearGradient>
  <linearGradient id="dbgrad" x1="0" x2="1" y1="0" y2="1">
    <stop offset="0%" stop-color="#8fc3e2"/>
    <stop offset="55%" stop-color="#3571a5"/>
    <stop offset="100%" stop-color="#214f76"/>
  </linearGradient>
  <filter id="softshadow" x="-20%" y="-20%" width="140%" height="160%">
    <feDropShadow dx="0" dy="8" stdDeviation="10" flood-color="#7c92a6" flood-opacity="0.12"/>
  </filter>
  <filter id="innershadow" x="-20%" y="-20%" width="140%" height="140%">
    <feDropShadow dx="0" dy="2" stdDeviation="2" flood-color="#afbfcc" flood-opacity="0.10"/>
  </filter>
  <style>
    .title{font:700 32px 'Inter','Segoe UI',Arial,sans-serif; fill:#1f3f59; letter-spacing:-0.2px}
    .subtitle{font:600 18px 'Inter','Segoe UI',Arial,sans-serif; fill:#4274a0}
    .label{font:700 17px 'Inter','Segoe UI',Arial,sans-serif; fill:#23445f}
    .body{font:400 14px 'Inter','Segoe UI',Arial,sans-serif; fill:#526b7d}
    .small{font:600 13px 'Inter','Segoe UI',Arial,sans-serif; fill:#526b7d}
    .tiny{font:600 11.5px 'Inter','Segoe UI',Arial,sans-serif; fill:#6a7e8c; letter-spacing:0.1px}
  </style>
</defs>

<rect x="0" y="0" width="1220" height="660" rx="28" fill="url(#bggrad)"/>
<rect x="12" y="12" width="1196" height="636" rx="26" fill="#ffffff" stroke="#e3ebf1" stroke-width="1.5" filter="url(#softshadow)"/>

<text x="56" y="64" class="title">Postprocess poses and docking logs</text>
<text x="56" y="96" class="body">Parse logs, crawl pose trees, convert poses to molecules, compute interactions, and derive metrics.</text>

<rect x="50" y="180" width="280" height="120" rx="22" fill="#ffffff" stroke="#d6e0e8" stroke-width="2"  filter="url(#softshadow)"/>
<text x="72" y="215" class="label">Extractor</text>
<text x="72" y="242" class="body">crawl logs · parse scores · detect engines</text>

<rect x="50" y="360" width="280" height="120" rx="22" fill="#ffffff" stroke="#d6e0e8" stroke-width="2"  filter="url(#softshadow)"/>
<text x="72" y="395" class="label">PoseCrawler</text>
<text x="72" y="422" class="body">collect pose files · select best · convert</text>

<rect x="400" y="180" width="300" height="120" rx="22" fill="#f1f7f0" stroke="#d6e0e8" stroke-width="2"  filter="url(#softshadow)"/>
<text x="422" y="215" class="label">InteractionProfiler</text>
<text x="422" y="242" class="body">fingerprints · interaction events · summaries</text>

<rect x="400" y="360" width="300" height="120" rx="22" fill="#edf5fa" stroke="#d6e0e8" stroke-width="2"  filter="url(#softshadow)"/>
<text x="422" y="395" class="label">Metrics</text>
<text x="422" y="422" class="body">dock power · screen power</text>

<rect x="760" y="170" width="430" height="420" rx="22" fill="#ffffff" stroke="#d6e0e8" stroke-width="2"  filter="url(#softshadow)"/>
<text x="782" y="205" class="label">Reusable outputs</text>
<text x="782" y="232" class="body">score tables · pose tables · interaction tables · similarity matrices</text>

<polygon points="340,236 372,236 372,230 390,240 372,250 372,244 340,244" fill="#3f76a3" opacity="0.95"/>
<polygon points="710,236 732,236 732,230 750,240 732,250 732,244 710,244" fill="#8a7658" opacity="0.92"/>

<polygon points="340,416 372,416 372,410 390,420 372,430 372,424 340,424" fill="#3f76a3" opacity="0.95"/>
<polygon points="710,416 732,416 732,410 750,420 732,430 732,424 710,424" fill="#8a7658" opacity="0.92"/>

<rect x="790" y="260" width="190" height="120" rx="16" fill="#ffffff" stroke="#d6e0e8" stroke-width="2"  filter="url(#softshadow)"/>
<line x1="806" y1="298" x2="964" y2="298" stroke="#dce7ef" stroke-width="1.8"/>
<line x1="806" y1="318" x2="964" y2="318" stroke="#dce7ef" stroke-width="1.8"/>
<line x1="806" y1="338" x2="964" y2="338" stroke="#dce7ef" stroke-width="1.8"/>
<line x1="852" y1="278" x2="852" y2="362" stroke="#dce7ef" stroke-width="1.8"/>
<line x1="898" y1="278" x2="898" y2="362" stroke="#dce7ef" stroke-width="1.8"/>
<rect x="806" y="278" width="158" height="20" rx="8" fill="#edf5fa"/>
<text x="885.0" y="402" class="tiny" text-anchor="middle">scores / poses</text>

<rect x="1010" y="260" width="150" height="120" rx="16" fill="#ffffff" stroke="#d6e0e8" stroke-width="2"  filter="url(#softshadow)"/>
<rect x="1022.0" y="272.0" width="22.2" height="16.2" rx="4" fill="#eaf3f8"/>
<rect x="1047.2" y="272.0" width="22.2" height="16.2" rx="4" fill="#d6e7f1"/>
<rect x="1072.4" y="272.0" width="22.2" height="16.2" rx="4" fill="#b5d2e5"/>
<rect x="1097.6" y="272.0" width="22.2" height="16.2" rx="4" fill="#86bddc"/>
<rect x="1122.8" y="272.0" width="22.2" height="16.2" rx="4" fill="#3f76a3"/>
<rect x="1022.0" y="291.2" width="22.2" height="16.2" rx="4" fill="#d6e7f1"/>
<rect x="1047.2" y="291.2" width="22.2" height="16.2" rx="4" fill="#b5d2e5"/>
<rect x="1072.4" y="291.2" width="22.2" height="16.2" rx="4" fill="#86bddc"/>
<rect x="1097.6" y="291.2" width="22.2" height="16.2" rx="4" fill="#3f76a3"/>
<rect x="1122.8" y="291.2" width="22.2" height="16.2" rx="4" fill="#eaf3f8"/>
<rect x="1022.0" y="310.4" width="22.2" height="16.2" rx="4" fill="#b5d2e5"/>
<rect x="1047.2" y="310.4" width="22.2" height="16.2" rx="4" fill="#86bddc"/>
<rect x="1072.4" y="310.4" width="22.2" height="16.2" rx="4" fill="#3f76a3"/>
<rect x="1097.6" y="310.4" width="22.2" height="16.2" rx="4" fill="#eaf3f8"/>
<rect x="1122.8" y="310.4" width="22.2" height="16.2" rx="4" fill="#d6e7f1"/>
<rect x="1022.0" y="329.6" width="22.2" height="16.2" rx="4" fill="#86bddc"/>
<rect x="1047.2" y="329.6" width="22.2" height="16.2" rx="4" fill="#3f76a3"/>
<rect x="1072.4" y="329.6" width="22.2" height="16.2" rx="4" fill="#eaf3f8"/>
<rect x="1097.6" y="329.6" width="22.2" height="16.2" rx="4" fill="#d6e7f1"/>
<rect x="1122.8" y="329.6" width="22.2" height="16.2" rx="4" fill="#b5d2e5"/>
<rect x="1022.0" y="348.8" width="22.2" height="16.2" rx="4" fill="#3f76a3"/>
<rect x="1047.2" y="348.8" width="22.2" height="16.2" rx="4" fill="#eaf3f8"/>
<rect x="1072.4" y="348.8" width="22.2" height="16.2" rx="4" fill="#d6e7f1"/>
<rect x="1097.6" y="348.8" width="22.2" height="16.2" rx="4" fill="#b5d2e5"/>
<rect x="1122.8" y="348.8" width="22.2" height="16.2" rx="4" fill="#86bddc"/>
<text x="1085.0" y="402" class="tiny" text-anchor="middle">similarity</text>

<rect x="790" y="420" width="190" height="120" rx="16" fill="#ffffff" stroke="#d6e0e8" stroke-width="2"  filter="url(#softshadow)"/>
<line x1="806" y1="458" x2="964" y2="458" stroke="#dce7ef" stroke-width="1.8"/>
<line x1="806" y1="478" x2="964" y2="478" stroke="#dce7ef" stroke-width="1.8"/>
<line x1="806" y1="498" x2="964" y2="498" stroke="#dce7ef" stroke-width="1.8"/>
<line x1="852" y1="438" x2="852" y2="522" stroke="#dce7ef" stroke-width="1.8"/>
<line x1="898" y1="438" x2="898" y2="522" stroke="#dce7ef" stroke-width="1.8"/>
<rect x="806" y="438" width="158" height="20" rx="8" fill="#edf5fa"/>
<text x="885.0" y="562" class="tiny" text-anchor="middle">interaction events</text>

<rect x="1010" y="420" width="150" height="120" rx="16" fill="#ffffff" stroke="#d6e0e8" stroke-width="2"  filter="url(#softshadow)"/>
<line x1="1032" y1="510" x2="1142" y2="510" stroke="#9fb6c8" stroke-width="1.8"/>
<line x1="1032" y1="445" x2="1032" y2="510" stroke="#9fb6c8" stroke-width="1.8"/>
<polyline points="1038,492 1070,477 1100,500 1132,461" fill="none" stroke="#3f76a3" stroke-width="4" stroke-linecap="round" stroke-linejoin="round"/>
<text x="1085.0" y="562" class="tiny" text-anchor="middle">metrics</text>

</svg>
